<?xml version="1.0" encoding="UTF-8" standalone="no"?>
<!-- Created with Inkscape (http://www.inkscape.org/) -->

<svg
   version="1.1"
   id="svg70956"
   width="463.84641"
   height="555.05896"
   viewBox="0 0 463.84641 555.05896"
   sodipodi:docname="МФТИ.svg"
   inkscape:version="1.1.2 (0a00cf5339, 2022-02-04)"
   xmlns:inkscape="http://www.inkscape.org/namespaces/inkscape"
   xmlns:sodipodi="http://sodipodi.sourceforge.net/DTD/sodipodi-0.dtd"
   xmlns="http://www.w3.org/2000/svg"
   xmlns:svg="http://www.w3.org/2000/svg">
  <defs
     id="defs70960" />
  <sodipodi:namedview
     id="namedview70958"
     pagecolor="#ffffff"
     bordercolor="#666666"
     borderopacity="1.0"
     inkscape:pageshadow="2"
     inkscape:pageopacity="0.0"
     inkscape:pagecheckerboard="0"
     showgrid="false"
     inkscape:zoom="0.56248458"
     inkscape:cx="151.11525"
     inkscape:cy="392.01075"
     inkscape:window-width="1920"
     inkscape:window-height="997"
     inkscape:window-x="0"
     inkscape:window-y="51"
     inkscape:window-maximized="1"
     inkscape:current-layer="g70962" />
  <g
     inkscape:groupmode="layer"
     inkscape:label="Image"
     id="g70962"
     transform="translate(-144.08769,-101.13549)">
    <g
       id="g946">
      <rect
         style="fill:#ffffff;stroke:#add400;stroke-width:0.526276"
         id="rect844"
         width="472.57056"
         height="555.79169"
         x="144.0787"
         y="100.38854" />
      <path
         style="fill:#0069b4;fill-opacity:1"
         d="m 144.08769,656.17122 c 0,-0.34472 17.1,-85.77785 38,-189.85139 20.9,-104.07354 38,-189.38487 38,-189.58073 0,-0.19587 -13.14387,2.2794 -29.2086,5.5006 -16.06473,3.2212 -29.57121,5.85672 -30.01439,5.85672 -1.3166,0 5.01278,-11.79975 11.85743,-22.10562 19.07092,-28.71473 47.37489,-53.44849 74.06248,-64.72037 13.58163,-5.73639 21.7981,-7.59219 33.80309,-7.63489 10.37689,-0.0369 11.30545,0.13004 16.39221,2.94721 9.37238,5.19064 13.3264,13.68925 13.26613,28.51367 -0.0332,8.15284 -2.1018,19.77064 -14.58785,81.9273 -8.00207,39.83502 -14.41154,72.56498 -14.24327,72.73326 0.16828,0.16827 25.02599,-4.66018 55.23937,-10.72989 62.34079,-12.52394 64.555,-12.73892 75.20156,-7.30116 4.53691,2.31724 6.39323,4.03195 8.90432,8.22505 3.86162,6.44824 5.84237,16.80843 4.88165,25.53317 -0.37017,3.36175 -7.17128,38.45501 -15.11358,77.98502 -7.9423,39.53002 -14.44054,72.71095 -14.44054,73.73541 0,1.79141 0.20081,1.78374 5.25,-0.20054 2.8875,-1.13475 10.875,-4.9647 17.75,-8.511 50.69129,-26.14783 86.63277,-73.81649 98.57175,-130.73426 3.14874,-15.01129 4.35142,-42.70843 2.52722,-58.20054 -2.5984,-22.06705 -7.97949,-41.01002 -17.03324,-59.96182 -10.15186,-21.25045 -19.46941,-34.73233 -35.33262,-51.124 l -9.79762,-10.12401 12.70757,-63.37599 c 6.98916,-34.8568 12.84171,-63.55154 13.00566,-63.76608 1.03974,-1.360561 24.4476,17.17388 37.74935,29.89008 49.50742,47.32807 79.69136,110.96229 85.52475,180.30447 5.22102,62.06297 -11.86387,127.29031 -46.93639,179.19553 -13.12502,19.42424 -33.36533,42.03657 -50.98644,56.96169 -33.65735,28.50786 -71.68994,47.8212 -114.99999,58.39817 -21.89389,5.34682 -93.8537,19.61977 -94.69173,18.78174 -0.36289,-0.36289 7.74869,-42.3932 18.02573,-93.4007 10.27703,-51.00749 18.68113,-94.18587 18.67576,-95.95194 -0.0111,-3.65552 -3.22507,-7.2887 -6.44832,-7.28942 -4.87798,-10e-4 -59.15024,11.38795 -60.16062,12.62472 -0.60454,0.74001 -9.99746,45.84683 -20.87316,100.23737 l -19.77398,98.8919 -42.37685,8.47402 c -23.30726,4.66071 -42.37684,8.19197 -42.37684,7.84725 z m 110,-400.41878 c 0,-0.18919 1.35001,-7.0094 3.00001,-15.15602 1.65,-8.14662 3,-15.43026 3,-16.18588 0,-2.27679 -7.61503,2.58897 -12.56567,8.02907 -9.94029,10.92307 -7.40648,22.13461 5.31566,23.52063 0.6875,0.0749 1.25,-0.0186 1.25,-0.2078 z m 21.12915,-9.78516 c 6.87573,-6.87573 8.83974,-15.09812 4.82537,-20.20156 -2.07089,-2.63271 -8.81636,-5.24107 -10.08427,-3.89941 -0.37948,0.40156 -1.8905,6.80511 -3.35782,14.23011 -1.46731,7.425 -2.91645,14.55153 -3.22031,15.83674 l -0.55246,2.33673 4.17166,-2.12823 c 2.29442,-1.17052 5.99244,-3.94899 8.21783,-6.17438 z m -34.03438,-79.10963 c -0.47534,-1.24367 -6.76492,-16.39994 -13.97684,-33.68058 -7.21191,-17.28064 -13.00128,-31.50796 -12.86525,-31.61626 0.13603,-0.10831 15.56497,7.31477 34.28654,16.49575 l 34.03923,16.69267 34.26263,-16.77747 c 25.37256,-12.42424 34.10725,-16.28786 33.66374,-14.89051 -0.32939,1.03783 -6.59282,16.20331 -13.91872,33.70107 l -13.31983,31.8141 -40.65361,0.26123 -40.65362,0.26124 z"
         id="path71023" />
    </g>
  </g>
</svg>
